<svg id="Layer_1" data-name="Layer 1" xmlns="http://www.w3.org/2000/svg" xmlns:xlink="http://www.w3.org/1999/xlink" viewBox="0 0 231.63 41.86"><defs><style>.cls-1{fill:url(#linear-gradient);}.cls-2{fill:url(#linear-gradient-2);}.cls-3{fill:url(#linear-gradient-3);}.cls-4{fill:url(#linear-gradient-4);}.cls-5{fill:url(#linear-gradient-5);}.cls-6{fill:url(#linear-gradient-6);}.cls-7{fill:url(#linear-gradient-7);}.cls-8{fill:url(#linear-gradient-8);}.cls-9{fill:url(#linear-gradient-9);}</style><linearGradient id="linear-gradient" x1="228.43" y1="429.06" x2="260.99" y2="429.06" gradientUnits="userSpaceOnUse"><stop offset="0" stop-color="#312783"/><stop offset="1" stop-color="#662483"/><stop offset="1" stop-color="#36a9e1"/></linearGradient><linearGradient id="linear-gradient-2" x1="336.44" y1="423.76" x2="365.82" y2="423.76" xlink:href="#linear-gradient"/><linearGradient id="linear-gradient-3" x1="262.83" y1="424.65" x2="295.53" y2="424.65" xlink:href="#linear-gradient"/><linearGradient id="linear-gradient-4" x1="212.8" y1="424.08" x2="224.86" y2="424.08" xlink:href="#linear-gradient"/><linearGradient id="linear-gradient-5" x1="297.03" y1="429.06" x2="329.6" y2="429.06" xlink:href="#linear-gradient"/><linearGradient id="linear-gradient-6" x1="47.95" y1="29.59" x2="47.95" y2="29.59" xlink:href="#linear-gradient"/><linearGradient id="linear-gradient-7" x1="134.18" y1="424.63" x2="168.77" y2="424.63" xlink:href="#linear-gradient"/><linearGradient id="linear-gradient-8" x1="47.95" y1="29.59" x2="47.95" y2="29.59" xlink:href="#linear-gradient"/><linearGradient id="linear-gradient-9" x1="173.63" y1="429.07" x2="206.32" y2="429.07" xlink:href="#linear-gradient"/></defs><path class="cls-1" d="M255.5,417c0,.34,0,.7-.06,1.05,0-.35,0-.71.06-1.05h0l-.4-.3h0a5.5,5.5,0,0,0-2.46-1.62l-.31-.2-.37-.12c-6.67-3.46-15.91-1.32-20.43,4.74s-4,15.52,1.12,20.38a9.3,9.3,0,0,0,2.33,2.14c10.23,6.94,25.08,1.06,26-11.87C261.3,425,259.75,420.4,255.5,417Zm-3.45,16.73a8.15,8.15,0,0,1-13,2.28l-1-.94a12,12,0,0,1-1.33-9.1,8.14,8.14,0,0,1,12.46-4.85l.71.44C253.22,425.31,254,429.76,252.05,433.75Z" transform="translate(-134.18 -403.14)"/><path class="cls-2" d="M338.25,444.35a24,24,0,0,1,4.24,0c1.67.18,2.05-.44,2-2.05-.09-5.2-.15-10.41.06-15.6.17-4.13,3.18-6.61,7.22-6.43,3.89.19,6.06,2.6,6.08,6.84,0,5.25,0,10.51,0,15.77,0,1.22.36,1.55,1.54,1.47a31.68,31.68,0,0,1,4.57,0c1.37.1,1.89-.28,1.87-1.74-.09-5.6-.07-11.2-.06-16.79a15.54,15.54,0,0,0-1.15-5.7c-1.88-4.73-6.28-6.89-10.93-6.8-2.8.05-5.55.66-7.65,2.85-.32.33-.6,1-1.18.75s-.34-.9-.34-1.38c0-3.67,0-7.35,0-11,0-1-.18-1.43-1.29-1.36a51.28,51.28,0,0,1-5.26.06c-1.22,0-1.49.43-1.48,1.58.05,6.34,0,12.67,0,19h-.06c0,6.28,0,12.55,0,18.83C336.42,444.08,336.89,444.46,338.25,444.35Z" transform="translate(-134.18 -403.14)"/><path class="cls-3" d="M293.89,404.88c-8.47.12-16.95.1-25.43.18-1.78,0-4.23-.79-5.17.35s-.21,3.45-.29,5.25c0,.88.23,1.16,1.13,1.14,3-.06,6,.06,9-.08,1.61-.07,2.12.36,2.1,2-.09,9-.06,18.09-.06,27.14,0,3.44,0,3.47,3.47,3.41,1.45,0,3.33.64,4.25-.33s.26-2.8.26-4.26q.06-14,.06-28l.12-.14-.12.14c4-.07,8.06.17,12.09-.12.42-1.67,0-3.37.21-5C295.64,405.31,295.31,404.86,293.89,404.88Z" transform="translate(-134.18 -403.14)"/><path class="cls-4" d="M223.53,438.49A2.54,2.54,0,0,1,221,437a5.46,5.46,0,0,1-.41-2.64c0-9.89,0-19.78.09-29.67,0-1.19-.29-1.57-1.49-1.49a40.22,40.22,0,0,1-4.91,0c-1.17-.07-1.54.25-1.52,1.47.07,5.37,0,10.74,0,16.1h0c0,5.48-.16,11,0,16.44.18,4.91,4.53,8.23,9.47,7.6,2.37-.3,2.45-.39,2.46-2.82,0-.68-.05-1.36,0-2C224.92,439,224.78,438.42,223.53,438.49Z" transform="translate(-134.18 -403.14)"/><path class="cls-5" d="M313.41,413.11c-9.43,0-16.38,6.81-16.38,16,0,9,7,15.85,16.16,15.89,9.41,0,16.46-6.88,16.41-16.16C329.54,420,323,413.08,313.41,413.11Zm7.83,19.32a8.17,8.17,0,0,1-7.76,5.94c-4.73,0-7.9-3.09-8.54-8.64a8,8,0,0,1,0-.85c.16-3.62,1.49-6.6,4.91-8.25a7.89,7.89,0,0,1,8.47.88C321.3,423.65,322.5,428.23,321.24,432.43Z" transform="translate(-134.18 -403.14)"/><polygon class="cls-6" points="47.95 29.59 47.95 29.59 47.95 29.59 47.95 29.59"/><path class="cls-7" d="M135.75,444.32c6.33-.06,12.66-.05,19-.08a6.29,6.29,0,0,0,2.51-.27,11.35,11.35,0,0,0,4.6-1c4.32-1.69,6.91-5.2,6.93-9.31,0-4.48-2-7.29-6.74-9.21-.79-.32-1.24-.76-.29-1.3a10.27,10.27,0,0,0,2.91-2.73c1.2-1.5,2.14-3.21,1.74-5.3a4.34,4.34,0,0,0-.47-3.57c-1.93-3.85-5.24-5.7-9.39-6.25l-1.26,0,1.26,0a5,5,0,0,0-2.32-.36c-6.21,0-12.43,0-18.64,0-1.21,0-1.36.48-1.36,1.5q0,18.22,0,36.44C134.18,444.12,134.63,444.33,135.75,444.32Zm6.48-31.5c0-1.05.29-1.36,1.34-1.33,2.07.06,4.15,0,6.23-.07a.88.88,0,0,1,0-.17.84.84,0,0,1,.05-.17,1.4,1.4,0,0,1,.12-.18,1.09,1.09,0,0,1,.17-.13,1.09,1.09,0,0,0-.17.13,1.4,1.4,0,0,0-.12.18.84.84,0,0,0-.05.17.88.88,0,0,0,0,.17h0c1.63.18,3.28-.07,4.89.32,2.44.59,3.83,2.07,3.94,4.24a4.62,4.62,0,0,1-3.42,4.51,5.6,5.6,0,0,1-1.64.39c-3.78.16-7.56.23-11.34,0C142.23,418.22,142.29,415.52,142.23,412.82Zm-.09,15.23a.71.71,0,0,1,.54-.74c3.62,0,7.24,0,10.85.08a9.06,9.06,0,0,1,5,1.34,4.69,4.69,0,0,1,2.22,4.63,4.34,4.34,0,0,1-3.2,3.78,12.53,12.53,0,0,1-4.17.68l-10,.11c-.71,0-1.26-.12-1.24-1.12C142.19,433.89,142.15,431,142.14,428.05Z" transform="translate(-134.18 -403.14)"/><polygon class="cls-8" points="47.95 29.59 47.95 29.59 47.95 29.59 47.95 29.59"/><path class="cls-9" d="M199.48,416.06a10,10,0,0,1-.25,1.88,3.11,3.11,0,0,0,0,.32,3.11,3.11,0,0,1,0-.32,10,10,0,0,0,.25-1.88l0,0-.4-.34a15.06,15.06,0,0,0-7.61-2.49,16.27,16.27,0,0,0-16.05,8.59,15.94,15.94,0,0,0,2.21,17.79c4.17,5,12.12,6.74,18.79,4.06a15.35,15.35,0,0,0,9.89-15.8C205.88,422.91,203.92,418.76,199.48,416.06Zm-1.19,15.54a8.27,8.27,0,0,1-7.36,6.68c-4,.4-7-1.49-8.8-5.55a5.15,5.15,0,0,0-.18,2.13,2.62,2.62,0,0,0,.09.38,2.62,2.62,0,0,1-.09-.38,5.15,5.15,0,0,1,.18-2.13h0c-.19,0-.42,0-.52-.1.1.14.33.1.52.1-.05-.21-.09-.41-.14-.62a12.35,12.35,0,0,1,.08-6.33,8.17,8.17,0,0,1,10.23-5.61c.54.15,1.08.32,1.61.48a1.1,1.1,0,0,1,.65-.43,1.1,1.1,0,0,0-.65.43h0A9.8,9.8,0,0,1,198.29,431.6Z" transform="translate(-134.18 -403.14)"/></svg>