<svg id="Layer_1" data-name="Layer 1" xmlns="http://www.w3.org/2000/svg" xmlns:xlink="http://www.w3.org/1999/xlink" viewBox="0 0 177.1 289.85"><defs><style>.cls-1{fill:#ffffff;}</style></defs><path class="cls-1" d="M158.28,225.12a51.53,51.53,0,0,0,2.05,14.23A70.21,70.21,0,0,0,166.82,258a58.92,58.92,0,0,0,7.38,12.26,66,66,0,0,0,12.29,14.13A76.47,76.47,0,0,0,202.43,296a15.78,15.78,0,0,0,1.36.95,98,98,0,0,0,14.2,6.23,75.62,75.62,0,0,0,19.37,4.33c1.68-.13,2.08.64,2.07,2.29q-.1,19.51,0,39c0,1.57-.41,1.94-2,1.93q-21.28-.09-42.58,0a6.84,6.84,0,0,0-1.42,13.52l.27,0a16.75,16.75,0,0,0,4.69.21c5.61,0,11.22-.1,16.83-.16a1.81,1.81,0,0,0,0-.57,1.81,1.81,0,0,1,0,.57c4.67.25,9.33.21,14,0a1.44,1.44,0,0,0,1.2,0h1.18a1.07,1.07,0,0,0,1.09,0l1.08,0c.61,0,1.22.13,1.84.13H297.4c4.38,0,7.44-2.76,7.47-6.63,0-4.12-3-7.1-7.37-7.17-2,0-4,0-5.94,0-12.09,0-24.19,0-36.28.09-1.41,0-1.82-.36-1.79-1.79.1-4.3,0-8.59,0-12.89,0-.55.17-1.13-.2-1.64,0-.8.05-1.6.07-2.4.49-.54.25-1.19.25-1.78,0-7.5,0-15,0-22.51a56.79,56.79,0,0,0,12.48-1.93A84.86,84.86,0,0,0,299,290.66q31.74-23.87,35.64-63.45a34.43,34.43,0,0,0,.15-9.24c.31-.25.24-.6.24-.93,0-9.45.08-18.89,0-28.33,0-4.85-3.51-7.88-8.15-7.27a.18.18,0,0,0-.25.11,1.27,1.27,0,0,0-1.34.79,3,3,0,0,0-2.51,1.37c-1.05,1.17-1.24,2.67-1.65,4.08l-.3.24a.24.24,0,0,0,.23,0,.24.24,0,0,1-.23,0h-2a9.83,9.83,0,0,1-1.52.12,9.83,9.83,0,0,0,1.52-.12,5.16,5.16,0,0,0-3,0H312.7a3.12,3.12,0,0,0-2.38,0c-1.35,0-2.7-.07-4,0s-1.52-.41-1.48-1.54c.05-1.51-.07-3-.12-4.53,0-4.17.07-8.33.12-12.5,0-.68-.17-1.06-.95-1-1.45.1-2.92.13-4.37.19a48.45,48.45,0,0,0-8.17,0c-1.85-.3-3.72,0-5.56-.11-2.57-.17-5.16.71-7.72-.75s-3.89-4.64-2.67-7.3a5.84,5.84,0,0,1,5.48-3.84h0l7.42-.12h0l3.06,0H294l9.64.07c.55,0,1,0,1-.78,0-3,0-6,0-9,0-.84-.47-1-1.21-1-2.25.07-4.51.09-6.76.13-.79,0-1.58-.07-2.37-.07-4.4,0-8.8-.06-13.2,0-3.91.07-7.64-4-6.08-8a6.43,6.43,0,0,1,4-3.86h3c7.11,0,14.22,0,21.33-.05.35,0,1.42.68,1.14-.65.27-4.72-.66-9.3-1.64-13.88a55,55,0,0,0-3.73-11.25c-1.53-4.11-4.17-7.51-6.86-10.89a3,3,0,0,0-.29-.6,54.19,54.19,0,0,0-15.66-13.77,59.09,59.09,0,0,0-10.26-4.79c-5-1.89-10.07-3.57-15.55-3.13a7.68,7.68,0,0,0-1.6-.41,50.46,50.46,0,0,0-15.72,1.47,13,13,0,0,0-4.39,1.28l-.34,0c-.43.11-.88.17-1.3.32A60.9,60.9,0,0,0,213.47,85c-15,10.39-23.15,24.75-25,42.8-.2,2-.54,4,.05,6,.38.52.93.32,1.4.32q11.67,0,23.32,0c3.42,1.18,5.07,3.54,4.59,6.55-.52,3.28-3,5.22-6.61,5.27l-5.08.06h0c-5.58,0-11.16,0-16.74-.09-.81,0-1,.2-1,1,.06,2.76.06,5.52,0,8.29,0,1,.21,1.42,1.3,1.4,4-.07,8-.06,12-.08a13.58,13.58,0,0,0,3.87.16c3,0,6.07-.48,9,.5,2.64,1.8,3.7,4,3.14,6.54-.7,3.11-3.11,4.84-6.84,4.83-7,0-14,0-21-.09-1.31,0-1.6.35-1.58,1.6.06,5.43,0,10.86,0,16.28,0,.66.19,1.41-.69,1.72l-7.62,0c-2.2,0-4.4-.08-6.6-.07-.95,0-1.46-.18-1.69-1.3a6.33,6.33,0,0,0-3.24-4.54c-4.94-2.66-10.48.73-10.5,6.53,0,11.3,0,22.6,0,33.9A5.45,5.45,0,0,0,158.28,225.12ZM288,156.07a.7.7,0,0,0-.24-.13A.7.7,0,0,1,288,156.07Zm-84.59-22.3-7.13,0a.7.7,0,0,0-.66-.66.7.7,0,0,1,.66.66l7.13,0a1.51,1.51,0,0,1,.21-1,1.51,1.51,0,0,0-.21,1c2.68,0,5.36,0,8.05,0C208.81,133.78,206.13,133.78,203.45,133.77Zm-9.08,140.64a.53.53,0,0,0,.26.08A.53.53,0,0,1,194.37,274.41Zm58.9,44.33a.94.94,0,0,0-.83.52.94.94,0,0,1,.83-.52c0-3.18,0-6.37,0-9.55C253.28,312.37,253.28,315.56,253.27,318.74Zm51.2-113.13a.84.84,0,0,1-.28-.52A.84.84,0,0,0,304.47,205.61ZM174,189.75a.4.4,0,0,1,.15-.1c.28,0,.33.17.35.36,0-.19-.07-.38-.35-.36a.56.56,0,0,0-.15.1.41.41,0,0,0-.12.32.49.49,0,0,0,0,.12.49.49,0,0,1,0-.12A.41.41,0,0,1,174,189.75Zm-1.87,38.06a22.3,22.3,0,0,0,0-4.4,1.07,1.07,0,0,1-.35-.72,1,1,0,0,0,.35.71c0-2.75,0-5.5,0-8.25q0-6.41-.11-12.8a.54.54,0,0,0-.22,0h0a2.22,2.22,0,0,1,1.6-.63,2.22,2.22,0,0,0-1.6.63.54.54,0,0,1,.22,0c2.75-.46,5.52-.13,8.28-.2,2.09-.06,4.18.07,6.27,0,1.3-.06,1.62.42,1.61,1.65-.06,5.32,0,10.63,0,15.95,0,.33.06.67.09,1a.41.41,0,0,1,.07.11.64.64,0,0,1,.08.5,1.21,1.21,0,0,1,0,.18,1.21,1.21,0,0,0,0-.18.64.64,0,0,0-.08-.5.41.41,0,0,0-.07-.11h0a.86.86,0,0,0,0,.9c0,.57.08,1.14.13,1.71h0a4.72,4.72,0,0,1,1-2.78,4.72,4.72,0,0,0-1,2.78,50.5,50.5,0,0,0,2.62,13.44c.53-.63.84-.38,1.08,0-.24-.35-.55-.6-1.08,0a51.18,51.18,0,0,0,6.78,14.28,2.25,2.25,0,0,0,.12-.21,2.25,2.25,0,0,1-.12.21c2.78,4.26,5.79,8.33,9.88,11.48a6.27,6.27,0,0,1,1.27-1.42,6.27,6.27,0,0,0-1.27,1.42,37.14,37.14,0,0,0,8.74,6.41,6.1,6.1,0,0,0,3-.53,2.54,2.54,0,0,0,.45-.36,2.54,2.54,0,0,1-.45.36,6.1,6.1,0,0,1-3,.53,52.1,52.1,0,0,0,17.39,7.17,1.8,1.8,0,0,1,.37-1,2.18,2.18,0,0,1,.22-.21,2.18,2.18,0,0,0-.22.21,1.8,1.8,0,0,0-.37,1h0a53.56,53.56,0,0,0,24.48.15,3.73,3.73,0,0,0,0-.47,3.73,3.73,0,0,1,0,.47c2.19-.46,4.29-1.22,6.42-1.86A55.31,55.31,0,0,0,284.93,263a56.37,56.37,0,0,0,16-22.85,58.82,58.82,0,0,0,3.71-18.32c.24-4.45,0-8.92,0-13.39v-2.64h0a1.84,1.84,0,0,0,0-1.4c.08-.77.17-1.53.25-2.29a1.29,1.29,0,0,1,.28-.25,1.29,1.29,0,0,0-.28.25c4.86,0,9.72.05,14.58,0,1.16,0,1.59.32,1.57,1.53-.13,6.72-.15,13.44-.3,20.17,0,2.24-.39,4.48-.59,6.72l.15-.13-.15.13h0A97.31,97.31,0,0,1,316.77,244,74.71,74.71,0,0,1,280,285.85c-.55.28-1.08.59-1.62.89h0a.52.52,0,0,1-.4.41.52.52,0,0,0,.4-.41l-1,.46h0l-.44.23,0,0a2.31,2.31,0,0,1-.72,1.67,2.31,2.31,0,0,0,.72-1.67,80.86,80.86,0,0,1-20.11,5.68c-3.07.42-6.17.59-9.26.87a84.7,84.7,0,0,1-20.23-2.68,106.36,106.36,0,0,1-13.92-5.2c.24.62.44,1.18.21,1.52l0,0a.64.64,0,0,1-.15.13.64.64,0,0,0,.15-.13l0,0c.23-.34,0-.9-.21-1.52h0l0,0-.42-.26a68.22,68.22,0,0,1-11.76-7.44c-1.52-1.16-3-2.38-4.48-3.57a4,4,0,0,1-.45,1,1.16,1.16,0,0,1-.16.21.79.79,0,0,1-.31.2.79.79,0,0,0,.31-.2,1.16,1.16,0,0,0,.16-.21,4,4,0,0,0,.45-1h0a1,1,0,0,0-1-.63h0a3.09,3.09,0,0,1-.82.27,3.09,3.09,0,0,0,.82-.27L194,272.37a103.1,103.1,0,0,1-10.79-13.6c-2.76-4.72-5-9.71-7.28-14.67h0a.74.74,0,0,0-.63.36.74.74,0,0,1,.63-.36h0c.25-2-1.09-3.66-1.53-5.52-.71-3-1.37-6-1.81-9-.09-.59-.27-1.17-.41-1.76h0a2,2,0,0,0-1.59.47A2,2,0,0,1,172.17,227.81Zm-1.9.9a1.41,1.41,0,0,1,.29-.4,1.41,1.41,0,0,0-.29.4,2.92,2.92,0,0,0-.19.52A2.92,2.92,0,0,1,170.27,228.71Z" transform="translate(-157.96 -74.67)"/></svg>