<svg id="Layer_1" data-name="Layer 1" xmlns="http://www.w3.org/2000/svg" viewBox="0 0 291.44 65.65"><defs><style>.cls-1{fill:#ffffff;}</style></defs><path class="cls-1" d="M120,264.79a11.3,11.3,0,0,0,.47,3.22,15.73,15.73,0,0,0,1.47,4.23,13.07,13.07,0,0,0,1.67,2.78,15.16,15.16,0,0,0,2.78,3.2,17.52,17.52,0,0,0,3.61,2.62c.11.07.2.15.31.21a22,22,0,0,0,3.22,1.41,16.45,16.45,0,0,0,4.38,1c.39,0,.48.15.47.52q0,4.43,0,8.84c0,.36-.09.44-.44.44-3.22,0-6.43,0-9.65,0a1.55,1.55,0,0,0-.32,3.07H128a3.78,3.78,0,0,0,1.06.05l3.82,0v0c1.05.06,2.11.05,3.17,0a.32.32,0,0,0,.27,0h.27a.23.23,0,0,0,.24,0h.25c.14,0,.27,0,.41,0h14a1.55,1.55,0,0,0,1.69-1.5,1.6,1.6,0,0,0-1.67-1.63h-1.35l-8.22,0c-.32,0-.41-.08-.4-.4,0-1,0-1.95,0-2.92a.62.62,0,0,0-.05-.38l0-.54c.11-.12,0-.27,0-.4,0-1.7,0-3.4,0-5.1a12.93,12.93,0,0,0,2.83-.44,19.1,19.1,0,0,0,7.43-3.42,19.68,19.68,0,0,0,8.07-14.37,7.7,7.7,0,0,0,0-2.09c.07-.06.05-.14.05-.21,0-2.14,0-4.28,0-6.42a1.55,1.55,0,0,0-1.85-1.64s0,0,0,0a.3.3,0,0,0-.31.18.65.65,0,0,0-.56.31,2.07,2.07,0,0,0-.38.92l-.07.06h-.46a1.94,1.94,0,0,1-.34,0,1.94,1.94,0,0,0,.34,0,1.16,1.16,0,0,0-.69,0H155a.72.72,0,0,0-.54,0c-.3,0-.61,0-.91,0s-.35-.1-.34-.35,0-.69,0-1l0-2.83c0-.15,0-.24-.21-.23l-1,0a10.28,10.28,0,0,0-1.84,0c-.42-.07-.85,0-1.27,0-.58,0-1.16.16-1.74-.17a1.34,1.34,0,0,1-.61-1.65,1.33,1.33,0,0,1,1.24-.87h0l1.69,0h3.49c.12,0,.22,0,.22-.17,0-.68,0-1.36,0-2,0-.19-.1-.23-.27-.23-.51,0-1,0-1.53,0h-.54c-1,0-2,0-3,0a1.4,1.4,0,0,1-1.38-1.8,1.47,1.47,0,0,1,.91-.88h5.52c.07,0,.32.16.25-.15a11.89,11.89,0,0,0-.37-3.14,12.1,12.1,0,0,0-.84-2.55,9.38,9.38,0,0,0-1.56-2.47.75.75,0,0,0-.06-.13,12.33,12.33,0,0,0-3.55-3.12,13.22,13.22,0,0,0-2.32-1.08,8.09,8.09,0,0,0-3.53-.71,1.61,1.61,0,0,0-.36-.1,11.26,11.26,0,0,0-3.56.34,2.83,2.83,0,0,0-1,.29h-.08l-.29.07a13.88,13.88,0,0,0-3.13,1.62,12.84,12.84,0,0,0-5.66,9.69,3.71,3.71,0,0,0,0,1.37c.09.12.21.07.32.07h5.28a1.31,1.31,0,0,1,1,1.48,1.39,1.39,0,0,1-1.5,1.2h-1.15l-3.79,0c-.18,0-.24.05-.23.24,0,.62,0,1.25,0,1.87,0,.22,0,.33.3.32l2.72,0a2.88,2.88,0,0,0,.88,0,6.36,6.36,0,0,1,2,.11,1.37,1.37,0,0,1,.71,1.48,1.4,1.4,0,0,1-1.54,1.1c-1.59,0-3.18,0-4.77,0-.29,0-.36.08-.36.36,0,1.23,0,2.46,0,3.69,0,.15,0,.32-.16.39H123.4c-.22,0-.33,0-.38-.3a1.43,1.43,0,0,0-.74-1,1.59,1.59,0,0,0-2.38,1.47c0,2.56,0,5.12,0,7.68A1.23,1.23,0,0,0,120,264.79Zm29.39-15.64-.05,0ZM130.2,244.1h-1.61a.17.17,0,0,0-.15-.15.17.17,0,0,1,.15.15h1.61a.36.36,0,0,1,.05-.24.36.36,0,0,0-.05.24h0Zm-2,31.85.06,0ZM141.49,286a.2.2,0,0,0-.19.11.2.2,0,0,1,.19-.11c0-.73,0-1.45,0-2.17C141.49,284.55,141.49,285.27,141.49,286Zm11.6-25.63a.25.25,0,0,1-.07-.12A.25.25,0,0,0,153.09,260.37Zm-29.55-3.59,0,0c.06,0,.07,0,.07.09s0-.09-.07-.09l0,0s0,0,0,.07v0S123.52,256.8,123.54,256.78Zm-.42,8.62a4.78,4.78,0,0,0,0-1,.19.19,0,0,1-.08-.16.19.19,0,0,0,.08.16v-1.87l0-2.9h0a.48.48,0,0,1,.36-.14.5.5,0,0,0-.36.14h0a13.12,13.12,0,0,1,1.88,0c.47,0,1,0,1.42,0,.3,0,.37.1.37.37,0,1.21,0,2.41,0,3.62a1.64,1.64,0,0,0,0,.22l0,0a.14.14,0,0,1,0,.11s0,0,0,0,0,0,0,0a.14.14,0,0,0,0-.11l0,0h0a.2.2,0,0,0,0,.21l0,.39h0a1.1,1.1,0,0,1,.22-.64,1.1,1.1,0,0,0-.22.64,11.29,11.29,0,0,0,.59,3c.12-.14.19-.09.25,0-.06-.08-.13-.13-.25,0a11.43,11.43,0,0,0,1.54,3.23l0,0,0,0a10.17,10.17,0,0,0,2.24,2.61,1.32,1.32,0,0,1,.28-.33,1.32,1.32,0,0,0-.28.33,8.63,8.63,0,0,0,2,1.45,1.44,1.44,0,0,0,.69-.12l.1-.09-.1.09a1.44,1.44,0,0,1-.69.12,11.65,11.65,0,0,0,3.94,1.62.48.48,0,0,1,.08-.22l.05,0-.05,0a.48.48,0,0,0-.08.22h0a12.2,12.2,0,0,0,5.54,0v0c.5-.11,1-.28,1.46-.43a12.39,12.39,0,0,0,4.55-2.58,12.76,12.76,0,0,0,3.62-5.18,13.16,13.16,0,0,0,.84-4.15c0-1,0-2,0-3v-.6h0a.44.44,0,0,0,0-.32l.06-.52.06-.05-.06.05c1.1,0,2.2,0,3.3,0,.27,0,.36.08.36.35,0,1.52,0,3.05-.07,4.57,0,.51-.09,1-.13,1.52l0,0,0,0h0a21.31,21.31,0,0,1-.78,3.05,16.86,16.86,0,0,1-8.33,9.48l-.36.21h0a.12.12,0,0,1-.09.09.12.12,0,0,0,.09-.09l-.22.1h0l-.1,0h0a.55.55,0,0,1-.16.38.55.55,0,0,0,.16-.38,18,18,0,0,1-4.55,1.28c-.7.1-1.4.14-2.1.2a19.13,19.13,0,0,1-4.58-.61,23.33,23.33,0,0,1-3.15-1.17c0,.14.09.26,0,.34h0l0,0,0,0h0c.05-.08,0-.2,0-.34h0l-.1-.05a15.35,15.35,0,0,1-2.66-1.69c-.35-.26-.68-.54-1-.81a1,1,0,0,1-.1.23l0,.05-.06,0,.06,0,0-.05a1,1,0,0,0,.1-.23h0a.23.23,0,0,0-.23-.14h0l-.19.06.19-.06-.38-.42a22.61,22.61,0,0,1-2.44-3.08,35.35,35.35,0,0,1-1.65-3.32h0c-.07,0-.13,0-.14.08s.07-.07.14-.08h0c0-.47-.25-.83-.35-1.25-.16-.68-.31-1.36-.41-2,0-.14-.06-.27-.09-.4h0a.46.46,0,0,0-.36.1A.46.46,0,0,1,123.12,265.4Zm-.43.2a.47.47,0,0,1,.06-.09.47.47,0,0,0-.06.09.56.56,0,0,0,0,.12A.56.56,0,0,1,122.69,265.6Z" transform="translate(-119.9 -230.71)"/><path class="cls-1" d="M301,259.52c0,.34,0,.7-.07,1.05,0-.35,0-.71.07-1.05h0l-.39-.3h0a5.42,5.42,0,0,0-2.45-1.62l-.31-.2-.38-.12c-6.67-3.46-15.9-1.32-20.42,4.74s-4,15.52,1.11,20.38a9.52,9.52,0,0,0,2.34,2.14c10.23,6.94,25.07,1.06,26-11.87C306.83,267.46,305.28,262.9,301,259.52Zm-3.45,16.73a8.16,8.16,0,0,1-13,2.28l-1-.94a12,12,0,0,1-1.34-9.09,8.14,8.14,0,0,1,12.46-4.86l.72.44C298.75,267.81,299.53,272.26,297.58,276.25Z" transform="translate(-119.9 -230.71)"/><path class="cls-1" d="M383.78,286.85a23.9,23.9,0,0,1,4.23,0c1.68.18,2.06-.44,2-2.05-.1-5.2-.16-10.41.06-15.6.17-4.13,3.18-6.61,7.22-6.42,3.89.18,6.06,2.59,6.07,6.83,0,5.25.05,10.51,0,15.77,0,1.22.36,1.55,1.53,1.47a33.34,33.34,0,0,1,4.58,0c1.36.1,1.89-.28,1.86-1.74-.08-5.6-.06-11.2-.06-16.79a15.14,15.14,0,0,0-1.15-5.7c-1.87-4.73-6.27-6.89-10.92-6.8-2.8.05-5.56.66-7.65,2.85-.33.33-.61,1-1.19.75s-.33-.9-.33-1.38c0-3.67,0-7.35,0-11,0-1-.18-1.43-1.29-1.36a51.28,51.28,0,0,1-5.26.06c-1.22,0-1.5.43-1.49,1.58.06,6.34,0,12.67,0,19H382c0,6.28.05,12.55,0,18.83C382,286.58,382.42,287,383.78,286.85Z" transform="translate(-119.9 -230.71)"/><path class="cls-1" d="M339.42,247.38c-8.48.12-17,.1-25.43.18-1.79,0-4.24-.79-5.17.35s-.21,3.45-.29,5.25c0,.88.22,1.16,1.13,1.14,3-.06,6,.06,9-.07,1.61-.08,2.11.35,2.1,2-.09,9-.06,18.09-.06,27.14,0,3.44,0,3.47,3.47,3.41,1.45,0,3.33.64,4.24-.33s.26-2.8.27-4.26c0-9.32,0-18.65.06-28l.12-.14-.12.14c4-.07,8.06.17,12.08-.12.43-1.67,0-3.37.21-5C341.17,247.81,340.84,247.36,339.42,247.38Z" transform="translate(-119.9 -230.71)"/><path class="cls-1" d="M269.06,281a2.54,2.54,0,0,1-2.49-1.46,5.34,5.34,0,0,1-.41-2.64c0-9.89,0-19.78.09-29.67,0-1.19-.3-1.57-1.49-1.49a40.38,40.38,0,0,1-4.92,0c-1.16-.07-1.53.25-1.52,1.47.07,5.37,0,10.74,0,16.1h0c0,5.48-.16,11,.05,16.44.19,4.91,4.54,8.23,9.48,7.6,2.37-.3,2.45-.39,2.45-2.82,0-.68,0-1.36,0-2C270.45,281.53,270.3,280.92,269.06,281Z" transform="translate(-119.9 -230.71)"/><path class="cls-1" d="M358.94,255.61c-9.43,0-16.38,6.81-16.38,16,0,9,7,15.85,16.16,15.89,9.41,0,16.46-6.88,16.4-16.15C375.07,262.45,368.56,255.58,358.94,255.61Zm7.83,19.32a8.18,8.18,0,0,1-7.76,5.94c-4.73,0-7.9-3.09-8.54-8.64a8,8,0,0,1,0-.85c.17-3.62,1.5-6.6,4.92-8.25a7.86,7.86,0,0,1,8.46.89C366.82,266.15,368,270.73,366.77,274.93Z" transform="translate(-119.9 -230.71)"/><polygon class="cls-1" points="107.76 44.52 107.76 44.52 107.76 44.52 107.76 44.52"/><path class="cls-1" d="M181.28,286.82c6.33-.06,12.65-.05,19-.08a6.28,6.28,0,0,0,2.51-.26,11.57,11.57,0,0,0,4.6-1c4.32-1.69,6.91-5.2,6.92-9.31,0-4.48-2-7.29-6.73-9.21-.79-.32-1.24-.76-.29-1.3a10.27,10.27,0,0,0,2.91-2.73c1.2-1.5,2.14-3.21,1.73-5.3a4.34,4.34,0,0,0-.46-3.57c-1.93-3.85-5.24-5.7-9.39-6.25l-1.26,0,1.26,0a5,5,0,0,0-2.32-.36c-6.22,0-12.43,0-18.64,0-1.21,0-1.36.48-1.36,1.5q0,18.22,0,36.44C179.7,286.62,180.16,286.83,181.28,286.82Zm6.47-31.5c0-1,.3-1.36,1.34-1.33,2.08.06,4.16,0,6.24-.07a.88.88,0,0,1,0-.17.84.84,0,0,1,.05-.17.57.57,0,0,1,.12-.18,1.09,1.09,0,0,1,.17-.13,1.09,1.09,0,0,0-.17.13.57.57,0,0,0-.12.18.84.84,0,0,0-.05.17.88.88,0,0,0,0,.17h0c1.62.18,3.27-.07,4.89.32,2.43.59,3.83,2.07,3.93,4.24.1,2-1.18,3.71-3.42,4.51a5.46,5.46,0,0,1-1.64.39c-3.78.16-7.56.24-11.34,0C187.76,260.72,187.81,258,187.75,255.32Zm-.08,15.23a.71.71,0,0,1,.54-.74c3.62,0,7.23,0,10.85.08a9,9,0,0,1,5,1.34,4.71,4.71,0,0,1,2.23,4.63,4.33,4.33,0,0,1-3.21,3.78,12.47,12.47,0,0,1-4.16.68l-10,.11c-.71,0-1.26-.12-1.24-1.12C187.71,276.39,187.68,273.47,187.67,270.55Z" transform="translate(-119.9 -230.71)"/><polygon class="cls-1" points="107.76 44.52 107.76 44.52 107.76 44.52 107.76 44.52"/><path class="cls-1" d="M245,257.5a10.9,10.9,0,0,1-.25,1.87c0,.11,0,.21,0,.32,0-.11,0-.21,0-.32a10.9,10.9,0,0,0,.25-1.87l0,0-.41-.34a15,15,0,0,0-7.61-2.49,16.27,16.27,0,0,0-16,8.59,15.94,15.94,0,0,0,2.21,17.8c4.52,5.44,13.51,7,20.47,3.27a16.14,16.14,0,0,0,6.7-21.06A13.23,13.23,0,0,0,245,257.5ZM243.81,273a8.25,8.25,0,0,1-7.35,6.68c-4,.4-7-1.49-8.8-5.54a5.27,5.27,0,0,0-.19,2.12c0,.13.06.26.1.39,0-.13-.07-.26-.1-.39a5.27,5.27,0,0,1,.19-2.12l0,0h0c-.19,0-.42,0-.53-.1.11.14.34.1.53.1,0-.21-.1-.41-.14-.62a12.21,12.21,0,0,1,.08-6.32,8.16,8.16,0,0,1,10.23-5.62c.54.15,1.07.32,1.61.48a1.08,1.08,0,0,1,.64-.43,1.08,1.08,0,0,0-.64.43h0A9.8,9.8,0,0,1,243.81,273Z" transform="translate(-119.9 -230.71)"/></svg>